<svg width="24" height="24" viewBox="0 0 24 24" fill="none" xmlns="http://www.w3.org/2000/svg">
    <path d="M17.3916 17.4192L16.6996 17.986C15.1474 19.2572 13.1652 20.0191 11.0025 20.0191M17.3916 17.4192L17.9735 16.711C19.2438 15.1576 20.0051 13.1739 20.0051 11.0095M17.3916 17.4192L22 22M11.0025 20.0191C6.03058 20.0191 2 15.9854 2 11.0095M11.0025 20.0191C15.9624 20.0191 20.0051 15.9732 20.0051 11.0095M11.0025 20.0191C6.04272 20.0191 2 15.9732 2 11.0095M2 11.0095C2 6.03371 6.03058 2 11.0025 2M2 11.0095C2 6.04586 6.04272 2 11.0025 2M11.0025 2C15.9745 2 20.0051 6.03371 20.0051 11.0095M11.0025 2C15.9624 2 20.0051 6.04586 20.0051 11.0095" stroke="#001E2B" stroke-width="2" stroke-linecap="round" stroke-linejoin="round"/>
</svg>
